<?xml version="1.0" standalone="no"?>
<!DOCTYPE svg PUBLIC "-//W3C//DTD SVG 20010904//EN"
 "http://www.w3.org/TR/2001/REC-SVG-20010904/DTD/svg10.dtd">
<svg version="1.0" xmlns="http://www.w3.org/2000/svg"
 width="40" height="40" viewBox="0 0 225.000000 225.000000"
 preserveAspectRatio="xMidYMid meet">

<g transform="translate(0.000000,225.000000) scale(0.100000,-0.100000)"
fill="#fff" stroke="none">
<path d="M871 1954 c-25 -8 -79 -30 -122 -50 -77 -36 -77 -36 -67 -66 28 -81
-13 -192 -91 -244 -45 -29 -133 -42 -179 -26 l-30 10 -36 -76 c-19 -43 -42
-98 -50 -124 l-14 -47 39 -26 c110 -72 132 -224 46 -321 -16 -19 -42 -41 -58
-49 l-27 -15 14 -47 c8 -27 30 -82 50 -124 l35 -75 50 10 c89 18 181 -22 229
-99 25 -41 37 -131 22 -173 l-10 -30 76 -36 c43 -19 98 -42 124 -50 l46 -14
24 36 c60 94 185 129 278 80 25 -14 60 -45 79 -70 l34 -45 46 14 c25 7 81 30
123 49 73 35 76 38 67 61 -16 44 -10 117 14 163 46 88 141 133 236 114 l49
-10 27 55 c15 31 38 86 51 124 l23 67 -27 14 c-147 77 -147 305 0 382 26 14
26 14 12 61 -8 27 -31 82 -50 125 l-36 76 -30 -10 c-46 -16 -134 -3 -179 26
-21 15 -51 45 -66 68 -25 37 -28 51 -28 126 l0 84 -50 26 c-27 13 -80 35 -116
47 l-67 23 -23 -36 c-60 -92 -180 -128 -273 -82 -40 19 -81 57 -111 102 -9 13
-16 13 -54 2z m405 -510 c245 -116 274 -451 54 -605 -177 -124 -416 -63 -516
131 -26 50 -29 65 -29 155 0 84 4 107 23 146 88 180 293 256 468 173z"/>
</g>
</svg>
