<?xml version="1.0" encoding="utf-8"?>
<svg version="1.0" width="40" height="30" viewBox="0 0 512.000000 512.000000" preserveAspectRatio="xMidYMid meet" xmlns="http://www.w3.org/2000/svg">
  <g transform="translate(0.000000,512.000000) scale(0.100000,-0.100000)" fill="white">
    <path d="M3104 4951 c-23 -10 -412 -260 -866 -554 -868 -565 -896 -585 -951 -693 -59 -118 -57 -68 -57 -1144 0 -1076 -2 -1026 57 -1144 55 -108 83 -128 951 -693 454 -294 843 -544 866 -554 52 -24 130 -24 182 0 49 22 97 78 113 130 16 55 16 4467 0 4522 -16 52 -64 108 -113 130 -52 24 -130 24 -182 0z m34 -3439 l-3 -1049 -715 465 c-904 586 -849 549 -885 600 l-30 44 -3 975 c-2 962 -2 977 18 1018 11 23 32 52 45 65 14 13 373 250 798 525 l772 502 3 -1049 c1 -576 1 -1520 0 -2096z" style="vector-effect: non-scaling-stroke; stroke-width: 0px;"/>
    <path d="M4546 3930 c-60 -18 -101 -80 -93 -141 3 -24 31 -77 81 -151 146 -219 240 -468 292 -773 24 -139 24 -461 0 -600 -51 -299 -157 -580 -290 -770 -78 -111 -98 -157 -90 -200 13 -73 96 -124 168 -104 89 25 272 325 371 609 91 263 129 487 129 765 0 278 -38 501 -129 765 -98 281 -292 600 -365 600 -10 0 -24 2 -32 4 -7 2 -26 0 -42 -4z" style="stroke-miterlimit: 12; paint-order: fill markers; stroke-width: 70px;"/>
    <path d="M230 3721 c-87 -27 -165 -95 -204 -180 -21 -46 -21 -47 -21 -981 0 -934 0 -935 21 -981 30 -64 88 -125 148 -157 l51 -27 273 -3 c310 -4 335 1 421 68 35 28 59 59 83 107 l33 68 0 925 0 925 -33 67 c-39 79 -93 129 -169 158 -49 18 -77 20 -316 19 -144 0 -273 -4 -287 -8z m520 -271 c13 -8 15 -118 18 -876 2 -767 1 -870 -13 -891 l-15 -23 -223 0 c-160 0 -226 3 -235 12 -17 17 -17 1759 0 1776 15 15 445 17 468 2z" style="stroke-width: 70px;"/>
    <path d="M3819 3467 c-70 -47 -79 -125 -25 -204 114 -166 190 -405 203 -634 13 -256 -55 -528 -183 -731 -66 -104 -74 -139 -46 -195 35 -68 123 -93 188 -54 35 21 104 121 157 226 120 241 179 583 148 854 -30 253 -124 518 -240 679 -60 81 -136 104 -202 59z" style="stroke-width: 70px;"/>
  </g>
</svg>