<?xml version="1.0" encoding="utf-8"?>
<svg version="1.0" width="40" height="30" viewBox="0 0 512.000000 512.000000" preserveAspectRatio="xMidYMid meet" xmlns="http://www.w3.org/2000/svg">
  <g transform="translate(0.000000,512.000000) scale(0.100000,-0.100000)" fill="white">
    <path d="M3104 4951 c-23 -10 -412 -260 -866 -554 -868 -565 -896 -585 -951 -693 -59 -118 -57 -68 -57 -1144 0 -1076 -2 -1026 57 -1144 55 -108 83 -128 951 -693 454 -294 843 -544 866 -554 52 -24 130 -24 182 0 49 22 97 78 113 130 16 55 16 4467 0 4522 -16 52 -64 108 -113 130 -52 24 -130 24 -182 0z m34 -3439 l-3 -1049 -715 465 c-904 586 -849 549 -885 600 l-30 44 -3 975 c-2 962 -2 977 18 1018 11 23 32 52 45 65 14 13 373 250 798 525 l772 502 3 -1049 c1 -576 1 -1520 0 -2096z" style="vector-effect: non-scaling-stroke; stroke-width: 0px;"/>
    <path d="M230 3721 c-87 -27 -165 -95 -204 -180 -21 -46 -21 -47 -21 -981 0 -934 0 -935 21 -981 30 -64 88 -125 148 -157 l51 -27 273 -3 c310 -4 335 1 421 68 35 28 59 59 83 107 l33 68 0 925 0 925 -33 67 c-39 79 -93 129 -169 158 -49 18 -77 20 -316 19 -144 0 -273 -4 -287 -8z m520 -271 c13 -8 15 -118 18 -876 2 -767 1 -870 -13 -891 l-15 -23 -223 0 c-160 0 -226 3 -235 12 -17 17 -17 1759 0 1776 15 15 445 17 468 2z" style="stroke-width: 70px;"/>
  </g>
  <ellipse fill="white" style="stroke: white" cx="424.437" cy="236.259" rx="15" ry="85" transform="matrix(0.707106, 0.707107, -0.707107, 0.707106, 290.577639, -196.47286)"/>
  <ellipse fill="white" style="stroke: white" cx="378.587" cy="235.304" rx="15" ry="85" transform="matrix(0.707107, -0.707107, 0.707107, 0.707107, -11.652769, 372.027098)"/>
</svg>